<svg width="31" height="32" viewBox="0 0 31 32" fill="none" xmlns="http://www.w3.org/2000/svg">
<path fill-rule="evenodd" clip-rule="evenodd" d="M16.1427 3.08331C19.4209 3.08331 22.5037 4.35982 24.8217 6.67852C29.6066 11.4639 29.6066 19.25 24.8217 24.0355C22.5037 26.3541 19.4209 27.6307 16.1427 27.6307C12.8645 27.6307 9.7817 26.3541 7.46361 24.0355C2.6788 19.25 2.6788 11.4639 7.46361 6.67852C9.7817 4.35982 12.8645 3.08331 16.1427 3.08331ZM16.1427 4.31068C13.1917 4.31068 10.4182 5.45954 8.3314 7.5463C4.02483 11.8529 4.02483 18.8611 8.3314 23.1677C10.4182 25.2544 13.1917 26.4033 16.1427 26.4033C19.0936 26.4033 21.8672 25.2544 23.954 23.1677C28.2605 18.8611 28.2605 11.8529 23.954 7.5463C21.8672 5.45954 19.0936 4.31068 16.1427 4.31068ZM10.936 10.1497C11.1757 9.90994 11.564 9.90994 11.8037 10.1497L16.1427 14.4891L20.4816 10.1497C20.7213 9.90994 21.1097 9.90994 21.3494 10.1497C21.5891 10.3894 21.5891 10.7777 21.3494 11.0175L17.0104 15.357L21.3494 19.6965C21.5891 19.9362 21.5891 20.3246 21.3494 20.5643C21.2295 20.6842 21.0725 20.7441 20.9155 20.7441C20.7585 20.7441 20.6015 20.6842 20.4816 20.5643L16.1427 16.2248L11.8037 20.5643C11.6839 20.6842 11.5269 20.7441 11.3699 20.7441C11.2128 20.7441 11.0558 20.6842 10.936 20.5643C10.6962 20.3246 10.6962 19.9362 10.936 19.6965L15.275 15.357L10.936 11.0175C10.6962 10.7777 10.6962 10.3894 10.936 10.1497Z" fill="#EC0000"/>
</svg>
