<?xml version="1.0" encoding="UTF-8"?>
<!DOCTYPE svg PUBLIC "-//W3C//DTD SVG 1.1//EN" "http://www.w3.org/Graphics/SVG/1.1/DTD/svg11.dtd">
<!-- Creator: CorelDRAW X6 -->
<svg xmlns="http://www.w3.org/2000/svg" xml:space="preserve" width="210px" version="1.1" style="shape-rendering:geometricPrecision; text-rendering:geometricPrecision; image-rendering:optimizeQuality; fill-rule:evenodd; clip-rule:evenodd"
viewBox="0 0 8178 1258"
 xmlns:xlink="http://www.w3.org/1999/xlink">
 <g id="Layer_x0020_1">
  <metadata id="CorelCorpID_0Corel-Layer"/>
  <g id="_715742640">
   <path style="fill:black" d="M728 19l-159 273c-31,56 -51,94 -60,117 -9,23 -14,35 -15,35l-3 0c-1,0 -6,-12 -15,-35 -7,-19 -27,-58 -60,-115l-159 -273 -257 0 0 1021 266 0 0 -222c0,-115 -3,-200 -9,-256 -4,-32 -6,-54 -7,-66 -1,-12 -1,-18 0,-18l3 0 12 22c3,6 8,15 15,27 7,12 11,20 13,24 7,13 16,31 28,54 10,19 15,31 16,34l83 152 137 0 83 -152 16 -32c12,-23 21,-41 28,-54 3,-6 8,-14 14,-26 6,-11 11,-19 14,-24l12 -22 3 0c1,0 1,6 0,18 -1,12 -3,34 -7,66 -6,56 -9,141 -9,256l0 222 266 0 9 -1026 -257 0zm1072 0l-150 260c-17,29 -28,53 -35,70 -7,18 -11,26 -13,26l-1 0c-1,0 -5,-9 -13,-26 -11,-25 -22,-49 -35,-70l-152 -260 -300 0 364 602 0 421 273 0 0 -421 362 -602 -300 0zm413 1023l0 216 893 0 0 -216 -893 0zm1822 -761c-13,-39 -32,-76 -57,-111 -24,-34 -54,-64 -88,-89 -32,-24 -70,-44 -114,-58 -42,-15 -87,-22 -136,-22 -56,0 -107,9 -152,26 -46,18 -85,41 -117,70 -32,29 -57,62 -75,98 -18,37 -26,74 -26,110 0,45 7,83 22,115 15,32 34,60 58,85 26,26 55,48 85,64 43,23 75,40 98,51 40,18 70,31 89,38 26,10 50,20 72,31 19,10 35,20 45,31 11,11 16,24 16,39 0,18 -7,32 -22,44 -15,12 -37,18 -67,18 -20,0 -41,-4 -61,-12 -19,-7 -35,-17 -50,-31 -16,-15 -28,-29 -38,-44 -10,-16 -19,-33 -26,-51l-262 70c17,48 38,90 63,127 27,39 58,72 92,99 37,29 77,50 120,63 46,15 95,22 149,22 57,0 110,-7 156,-22 49,-17 89,-39 121,-67 34,-29 60,-63 79,-102 19,-38 28,-80 28,-127 0,-42 -9,-80 -26,-114 -18,-33 -40,-63 -67,-89 -26,-25 -57,-48 -92,-67 -22,-13 -57,-30 -104,-51 -10,-4 -24,-10 -42,-19 -19,-9 -32,-15 -41,-19 -26,-11 -48,-21 -64,-31 -17,-10 -30,-20 -41,-31 -10,-10 -15,-21 -15,-35 0,-14 6,-25 19,-35 14,-11 33,-16 57,-16 28,0 56,9 83,26 27,18 48,47 61,88l9 0 260 -72zm47 -262l0 260 273 0 0 763 275 0 0 -763 278 0 0 -260 -825 0zm881 514c0,82 12,155 37,219 25,66 59,122 102,168 45,48 96,84 155,108 62,24 127,37 194,37 67,0 132,-12 194,-37 59,-24 111,-60 155,-107 43,-46 77,-102 102,-168 24,-64 37,-137 37,-219 0,-82 -12,-155 -37,-219 -25,-66 -59,-122 -102,-168 -44,-47 -95,-82 -155,-107 -61,-25 -126,-38 -194,-38 -68,0 -133,13 -194,38 -58,24 -110,60 -155,108 -43,46 -77,102 -102,168 -24,64 -37,137 -37,219l0 -3zm285 -3c0,-84 18,-148 53,-193 35,-46 85,-69 149,-69 66,0 117,23 152,70 35,47 53,112 53,194 0,83 -18,148 -53,194 -35,47 -86,70 -152,70 -64,0 -114,-23 -149,-70 -35,-47 -53,-112 -53,-194l0 -3zm1661 511l-210 -374c53,-27 94,-66 124,-115 30,-49 45,-107 45,-175 0,-53 -10,-101 -29,-146 -19,-43 -46,-81 -82,-114 -35,-32 -77,-57 -127,-75 -50,-18 -104,-26 -164,-26l-384 0 0 1023 275 0 0 -321 77 0 167 324 308 0zm-549 -766l137 0c16,0 29,3 41,9 11,5 20,13 28,25 7,9 12,20 15,34 3,12 4,23 4,34 0,11 -1,22 -4,34 -3,12 -8,22 -15,32 -8,12 -17,20 -28,25 -12,6 -25,9 -41,9l-137 0 0 -200zm958 506l0 -130 332 0 0 -244 -332 0 0 -129 434 0 0 -260 -709 0 0 1023 717 0 0 -260 -443 0z"/>
   <path style="fill:#767676" d="M8056 1058c34,0 63,-12 86,-35 23,-24 35,-54 35,-88 0,-34 -12,-64 -35,-89 -23,-24 -52,-37 -86,-37 -34,0 -63,12 -86,37 -23,25 -35,55 -35,89 0,34 12,64 35,89 23,23 52,35 86,35l0 -1z"/>
  </g>
 </g>
</svg>
